<?xml version="1.0" encoding="UTF-8"?>
<!DOCTYPE svg PUBLIC "-//W3C//DTD SVG 1.1//EN" "http://www.w3.org/Graphics/SVG/1.1/DTD/svg11.dtd">
<!-- Creator: CorelDRAW -->
<svg xmlns="http://www.w3.org/2000/svg" xml:space="preserve" width="6.82666in" height="6.82666in" style="shape-rendering:geometricPrecision; text-rendering:geometricPrecision; image-rendering:optimizeQuality; fill-rule:evenodd; clip-rule:evenodd"
viewBox="0 0 6.82666 6.82666"
 xmlns:xlink="http://www.w3.org/1999/xlink">
 <defs>
  <style type="text/css">
   <![CDATA[
    .fil2 {fill:none}
    .fil0 {fill:#424242}
    .fil1 {fill:#FFFFFE;fill-rule:nonzero}
   ]]>
  </style>
 </defs>
 <rect class="fil0" width="6.82666" height="6.82666"/>
 <g id="Layer_x0020_1">
  <metadata id="CorelCorpID_0Corel-Layer"/>
  <path class="fil1" d="M3.41333 4.56396l-2.03574 0 -0.106669 0 0 -0.106669c0,-0.591594 0.239803,-1.1272 0.627508,-1.5149 0.387701,-0.387705 0.923307,-0.627508 1.5149,-0.627508 0.591594,0 1.1272,0.239803 1.5149,0.627508 0.387705,0.387701 0.627508,0.923307 0.627508,1.5149l0 0.106669 -0.106669 0 -2.03574 0zm1.0115 -1.45761c-0.0499331,-0.0310669 -0.115602,-0.0157677 -0.146669,0.0341654 -0.0310669,0.0499331 -0.0157677,0.115602 0.0341654,0.146669 0.148295,0.0921969 0.267429,0.21922 0.349378,0.366673 0.0818189,0.147217 0.12672,0.315421 0.12672,0.490248 0,0.0589094 0.0477598,0.106669 0.106669,0.106669 0.0589094,0 0.106669,-0.0477598 0.106669,-0.106669 0,-0.21072 -0.0546457,-0.414409 -0.154224,-0.593579 -0.0994488,-0.178933 -0.243591,-0.332815 -0.422709,-0.444177z"/>
  <path class="fil1" d="M0.959996 4.66383c-0.0589094,0 -0.106669,0.0477598 -0.106669,0.106669 0,0.0589094 0.0477598,0.106669 0.106669,0.106669l4.90667 0c0.0589094,0 0.106669,-0.0477598 0.106669,-0.106669 0,-0.0589094 -0.0477598,-0.106669 -0.106669,-0.106669l-4.90667 0z"/>
  <path class="fil1" d="M3.52 2.05616c0,-0.0589094 -0.0477598,-0.106669 -0.106669,-0.106669 -0.0589094,0 -0.106669,0.0477598 -0.106669,0.106669l0 0.365433c0,0.0589094 0.0477598,0.106669 0.106669,0.106669 0.0589094,0 0.106669,-0.0477598 0.106669,-0.106669l0 -0.365433z"/>
 </g>
 <rect class="fil2" width="6.82666" height="6.82666"/>
</svg>
